<mxfile host="65bd71144e">
    <diagram id="WDvj7XgqpC5_DTz-zFPW" name="Page-1">
        <mxGraphModel dx="604" dy="422" grid="1" gridSize="10" guides="1" tooltips="1" connect="1" arrows="1" fold="1" page="1" pageScale="1" pageWidth="827" pageHeight="1169" math="0" shadow="0">
            <root>
                <mxCell id="0"/>
                <mxCell id="1" parent="0"/>
                <mxCell id="3" value="JS Execution Context&amp;nbsp;" style="text;strokeColor=none;align=center;fillColor=none;html=1;verticalAlign=middle;whiteSpace=wrap;rounded=0;" vertex="1" parent="1">
                    <mxGeometry x="210" y="10" width="120" height="30" as="geometry"/>
                </mxCell>
                <mxCell id="7" style="edgeStyle=none;html=1;exitX=1;exitY=0.5;exitDx=0;exitDy=0;entryX=0;entryY=0.5;entryDx=0;entryDy=0;" edge="1" parent="1" source="4" target="5">
                    <mxGeometry relative="1" as="geometry"/>
                </mxCell>
                <mxCell id="8" style="edgeStyle=none;html=1;exitX=1;exitY=0.5;exitDx=0;exitDy=0;entryX=0;entryY=0.5;entryDx=0;entryDy=0;" edge="1" parent="1" source="4" target="6">
                    <mxGeometry relative="1" as="geometry"/>
                </mxCell>
                <mxCell id="4" value="JS Code&amp;nbsp;" style="whiteSpace=wrap;html=1;" vertex="1" parent="1">
                    <mxGeometry x="60" y="120" width="120" height="60" as="geometry"/>
                </mxCell>
                <mxCell id="5" value="Global EC" style="whiteSpace=wrap;html=1;" vertex="1" parent="1">
                    <mxGeometry x="300" y="60" width="120" height="60" as="geometry"/>
                </mxCell>
                <mxCell id="6" value="Functional&amp;nbsp;&lt;br&gt;EC" style="whiteSpace=wrap;html=1;" vertex="1" parent="1">
                    <mxGeometry x="300" y="150" width="120" height="60" as="geometry"/>
                </mxCell>
                <mxCell id="9" value="&lt;b&gt;Working Mechanism&amp;nbsp;&lt;/b&gt;" style="text;strokeColor=none;align=center;fillColor=none;html=1;verticalAlign=middle;whiteSpace=wrap;rounded=0;" vertex="1" parent="1">
                    <mxGeometry x="130" y="250" width="320" height="40" as="geometry"/>
                </mxCell>
                <mxCell id="12" value="" style="edgeStyle=none;html=1;" edge="1" parent="1" source="10" target="11">
                    <mxGeometry relative="1" as="geometry"/>
                </mxCell>
                <mxCell id="10" value="JS CODE" style="whiteSpace=wrap;html=1;" vertex="1" parent="1">
                    <mxGeometry x="80" y="320" width="120" height="60" as="geometry"/>
                </mxCell>
                <mxCell id="14" style="edgeStyle=none;html=1;exitX=0.5;exitY=1;exitDx=0;exitDy=0;" edge="1" parent="1" source="11" target="13">
                    <mxGeometry relative="1" as="geometry"/>
                </mxCell>
                <mxCell id="17" value="" style="edgeStyle=none;html=1;" edge="1" parent="1" source="11" target="16">
                    <mxGeometry relative="1" as="geometry"/>
                </mxCell>
                <mxCell id="11" value="Memory Creation Phase" style="shape=hexagon;perimeter=hexagonPerimeter2;whiteSpace=wrap;html=1;fixedSize=1;" vertex="1" parent="1">
                    <mxGeometry x="80" y="470" width="120" height="80" as="geometry"/>
                </mxCell>
                <mxCell id="25" style="edgeStyle=none;html=1;exitX=1;exitY=0.5;exitDx=0;exitDy=0;" edge="1" parent="1" source="13">
                    <mxGeometry relative="1" as="geometry">
                        <mxPoint x="330" y="670" as="targetPoint"/>
                    </mxGeometry>
                </mxCell>
                <mxCell id="33" style="edgeStyle=none;html=1;exitX=0.5;exitY=1;exitDx=0;exitDy=0;entryX=0.5;entryY=0;entryDx=0;entryDy=0;" edge="1" parent="1" source="13" target="34">
                    <mxGeometry relative="1" as="geometry">
                        <mxPoint x="140" y="840" as="targetPoint"/>
                    </mxGeometry>
                </mxCell>
                <mxCell id="13" value="Execution Phase" style="ellipse;whiteSpace=wrap;html=1;" vertex="1" parent="1">
                    <mxGeometry x="85" y="610" width="110" height="120" as="geometry"/>
                </mxCell>
                <mxCell id="15" value="&lt;b&gt;Steps&amp;nbsp;&lt;/b&gt;" style="whiteSpace=wrap;html=1;" vertex="1" parent="1">
                    <mxGeometry x="330" y="320" width="230" height="20" as="geometry"/>
                </mxCell>
                <mxCell id="28" style="edgeStyle=none;html=1;exitX=0.5;exitY=1;exitDx=0;exitDy=0;entryX=0.5;entryY=0;entryDx=0;entryDy=0;" edge="1" parent="1" source="16" target="26">
                    <mxGeometry relative="1" as="geometry"/>
                </mxCell>
                <mxCell id="16" value="&lt;div style=&quot;&quot;&gt;&lt;span style=&quot;background-color: initial;&quot;&gt;ALL the variables are declared&lt;/span&gt;&lt;/div&gt;&lt;div style=&quot;&quot;&gt;&lt;span style=&quot;background-color: initial;&quot;&gt;and value is given undefined&amp;nbsp;&lt;/span&gt;&lt;/div&gt;&lt;div style=&quot;&quot;&gt;&lt;span style=&quot;background-color: initial;&quot;&gt;the defination of function is allocated memory&lt;/span&gt;&lt;/div&gt;" style="whiteSpace=wrap;html=1;align=left;" vertex="1" parent="1">
                    <mxGeometry x="330" y="445" width="250" height="130" as="geometry"/>
                </mxCell>
                <mxCell id="24" style="edgeStyle=none;html=1;exitX=0.5;exitY=1;exitDx=0;exitDy=0;" edge="1" parent="1" source="18" target="16">
                    <mxGeometry relative="1" as="geometry"/>
                </mxCell>
                <mxCell id="18" value="global ec" style="whiteSpace=wrap;html=1;" vertex="1" parent="1">
                    <mxGeometry x="335" y="380" width="220" height="20" as="geometry"/>
                </mxCell>
                <mxCell id="35" style="edgeStyle=none;html=1;exitX=0;exitY=1;exitDx=0;exitDy=0;entryX=0.75;entryY=0;entryDx=0;entryDy=0;" edge="1" parent="1" source="26" target="32">
                    <mxGeometry relative="1" as="geometry"/>
                </mxCell>
                <mxCell id="26" value="alll the variables are given there values&amp;nbsp;&lt;br&gt;but the function as already defined will not do anything here&amp;nbsp;&lt;br&gt;But when calling a function .. check down" style="whiteSpace=wrap;html=1;" vertex="1" parent="1">
                    <mxGeometry x="325" y="610" width="260" height="120" as="geometry"/>
                </mxCell>
                <mxCell id="36" style="edgeStyle=none;html=1;exitX=0.25;exitY=1;exitDx=0;exitDy=0;entryX=1;entryY=0;entryDx=0;entryDy=0;" edge="1" parent="1" source="32" target="34">
                    <mxGeometry relative="1" as="geometry"/>
                </mxCell>
                <mxCell id="32" value="Functions on invoking&lt;br&gt;" style="whiteSpace=wrap;html=1;" vertex="1" parent="1">
                    <mxGeometry x="205" y="770" width="120" height="60" as="geometry"/>
                </mxCell>
                <mxCell id="37" style="edgeStyle=none;html=1;exitX=1;exitY=0.5;exitDx=0;exitDy=0;" edge="1" parent="1" source="34">
                    <mxGeometry relative="1" as="geometry">
                        <mxPoint x="400" y="925" as="targetPoint"/>
                        <Array as="points">
                            <mxPoint x="310" y="925"/>
                        </Array>
                    </mxGeometry>
                </mxCell>
                <mxCell id="34" value="New Variable Environment&amp;nbsp;&lt;br&gt;&lt;br&gt;+&amp;nbsp;&lt;br&gt;Execution thread" style="whiteSpace=wrap;html=1;" vertex="1" parent="1">
                    <mxGeometry x="50" y="870" width="180" height="110" as="geometry"/>
                </mxCell>
                <mxCell id="40" value="" style="edgeStyle=none;html=1;" edge="1" parent="1" source="38" target="39">
                    <mxGeometry relative="1" as="geometry"/>
                </mxCell>
                <mxCell id="38" value="New Memoy Phase&amp;nbsp;&lt;br&gt;val1 -&amp;gt; undefined&amp;nbsp;&lt;br&gt;lly&amp;nbsp;&lt;br&gt;total -&amp;gt; undefind" style="whiteSpace=wrap;html=1;" vertex="1" parent="1">
                    <mxGeometry x="401" y="870" width="195" height="100" as="geometry"/>
                </mxCell>
                <mxCell id="39" value="Execution Phase&lt;br&gt;val1 = 10&lt;br&gt;val2 =5&amp;nbsp;&lt;br&gt;total = 15&lt;br&gt;&quot;total is returned back to its parent execution context&quot;" style="whiteSpace=wrap;html=1;" vertex="1" parent="1">
                    <mxGeometry x="401" y="1000" width="195" height="110" as="geometry"/>
                </mxCell>
                <mxCell id="41" value="This happens everytime a function is invoked or stored in a variable ,&lt;br&gt;" style="text;strokeColor=none;align=center;fillColor=none;html=1;verticalAlign=middle;whiteSpace=wrap;rounded=0;" vertex="1" parent="1">
                    <mxGeometry x="85" y="1010" width="230" height="40" as="geometry"/>
                </mxCell>
                <mxCell id="42" value="Also the new EC gets deleted after the work is done&amp;nbsp;" style="whiteSpace=wrap;html=1;fillColor=#d80073;fontColor=#303030;strokeColor=#A50040;labelBackgroundColor=#CCFFFF;labelBorderColor=none;" vertex="1" parent="1">
                    <mxGeometry x="75" y="1060" width="225" height="40" as="geometry"/>
                </mxCell>
            </root>
        </mxGraphModel>
    </diagram>
    <diagram id="E4ua1mSOlEr8jn4fLEyu" name="Page-2">
        <mxGraphModel dx="604" dy="1591" grid="1" gridSize="10" guides="1" tooltips="1" connect="1" arrows="1" fold="1" page="1" pageScale="1" pageWidth="827" pageHeight="1169" background="none" math="0" shadow="1">
            <root>
                <mxCell id="0"/>
                <mxCell id="1" parent="0"/>
                <mxCell id="SFB1NHaO1xCoQOcEsnfg-1" value="Call stacks" style="whiteSpace=wrap;html=1;labelBackgroundColor=none;labelBorderColor=none;fontColor=#CCFFFF;rounded=1;verticalAlign=middle;" vertex="1" parent="1">
                    <mxGeometry x="110" y="-410" width="400" height="60" as="geometry"/>
                </mxCell>
                <mxCell id="SFB1NHaO1xCoQOcEsnfg-2" value="" style="whiteSpace=wrap;html=1;rounded=1;labelBackgroundColor=none;labelBorderColor=none;fontColor=#CCFFFF;" vertex="1" parent="1">
                    <mxGeometry x="220" y="-300" width="180" height="300" as="geometry"/>
                </mxCell>
                <mxCell id="SFB1NHaO1xCoQOcEsnfg-3" value="Functions&lt;br&gt;" style="text;strokeColor=none;align=center;fillColor=none;html=1;verticalAlign=middle;whiteSpace=wrap;rounded=0;labelBackgroundColor=none;labelBorderColor=none;fontColor=#CCFFFF;" vertex="1" parent="1">
                    <mxGeometry x="50" y="-240" width="60" height="30" as="geometry"/>
                </mxCell>
                <mxCell id="SFB1NHaO1xCoQOcEsnfg-4" value="Global Ec" style="whiteSpace=wrap;html=1;rounded=1;labelBackgroundColor=none;labelBorderColor=none;fontColor=#CCFFFF;" vertex="1" parent="1">
                    <mxGeometry x="220" y="-60" width="180" height="60" as="geometry"/>
                </mxCell>
                <mxCell id="SFB1NHaO1xCoQOcEsnfg-5" value="ONE()" style="text;strokeColor=none;align=center;fillColor=none;html=1;verticalAlign=middle;whiteSpace=wrap;rounded=0;labelBackgroundColor=none;labelBorderColor=none;fontColor=#CCFFFF;" vertex="1" parent="1">
                    <mxGeometry x="40" y="-180" width="60" height="30" as="geometry"/>
                </mxCell>
                <mxCell id="SFB1NHaO1xCoQOcEsnfg-6" value="TwO()" style="text;strokeColor=none;align=center;fillColor=none;html=1;verticalAlign=middle;whiteSpace=wrap;rounded=0;labelBackgroundColor=none;labelBorderColor=none;fontColor=#CCFFFF;" vertex="1" parent="1">
                    <mxGeometry x="40" y="-140" width="60" height="30" as="geometry"/>
                </mxCell>
                <mxCell id="SFB1NHaO1xCoQOcEsnfg-10" value="Once Executed Funtions are out of the stack" style="text;strokeColor=none;align=center;fillColor=none;html=1;verticalAlign=middle;whiteSpace=wrap;rounded=0;labelBackgroundColor=none;labelBorderColor=none;fontColor=#CCFFFF;" vertex="1" parent="1">
                    <mxGeometry x="480" y="-240" width="60" height="30" as="geometry"/>
                </mxCell>
                <mxCell id="SFB1NHaO1xCoQOcEsnfg-11" value="LIFO = &amp;gt; Last IN First Out , incase of function calling inside function" style="text;strokeColor=none;align=center;fillColor=none;html=1;verticalAlign=middle;whiteSpace=wrap;rounded=0;labelBackgroundColor=none;labelBorderColor=none;fontColor=#CCFFFF;" vertex="1" parent="1">
                    <mxGeometry x="52" y="20" width="500" height="30" as="geometry"/>
                </mxCell>
            </root>
        </mxGraphModel>
    </diagram>
</mxfile>